<?xml version="1.0" encoding="UTF-8" standalone="no"?>
<svg
   role="img"
   viewBox="0 0 54 54"
   version="1.1"
   id="svg1"
   sodipodi:docname="linux2mqtt.svg"
   width="54"
   height="54"
   xml:space="preserve"
   inkscape:export-filename="mqtt.png"
   inkscape:export-xdpi="1024"
   inkscape:export-ydpi="1024"
   inkscape:version="1.4.3 (0d15f75, 2025-12-25)"
   xmlns:inkscape="http://www.inkscape.org/namespaces/inkscape"
   xmlns:sodipodi="http://sodipodi.sourceforge.net/DTD/sodipodi-0.dtd"
   xmlns="http://www.w3.org/2000/svg"
   xmlns:svg="http://www.w3.org/2000/svg"
   xmlns:rdf="http://www.w3.org/1999/02/22-rdf-syntax-ns#"
   xmlns:cc="http://creativecommons.org/ns#"
   xmlns:dc="http://purl.org/dc/elements/1.1/"><defs
     id="defs1" /><sodipodi:namedview
     id="namedview1"
     pagecolor="#ffffff"
     bordercolor="#666666"
     borderopacity="1.0"
     inkscape:showpageshadow="2"
     inkscape:pageopacity="0.0"
     inkscape:pagecheckerboard="true"
     inkscape:deskcolor="#d1d1d1"
     inkscape:zoom="17.805254"
     inkscape:cx="14.799003"
     inkscape:cy="25.722745"
     inkscape:window-width="3008"
     inkscape:window-height="1639"
     inkscape:window-x="0"
     inkscape:window-y="25"
     inkscape:window-maximized="1"
     inkscape:current-layer="svg1" /><title
     id="title1">MQTT</title><metadata
     id="metadata1"><rdf:RDF><cc:Work
         rdf:about=""><dc:title>MQTT</dc:title></cc:Work></rdf:RDF></metadata><rect
     style="fill:#575757;fill-opacity:1;stroke:#000000;stroke-width:0;stroke-opacity:1"
     id="rect1-6"
     width="52"
     height="52"
     x="1.6"
     y="1.6"
     ry="3.3297873" /><rect
     style="fill:#fff9ff;stroke-width:0;stroke:#000000;stroke-opacity:1;fill-opacity:0.95306861"
     id="rect1"
     width="52"
     height="52"
     x="1"
     y="1"
     ry="3.3297873" /><g
     id="g1"
     transform="translate(3.0000001,3.0110055)"><path
       d="M 36.525991,47.977989 H 28.435992 C 28.26999,32.481993 15.590001,19.943993 0,19.873998 v -7.808002 h 0.14199809 c 19.96599491,0 36.24199091,16.087998 36.38399291,35.911993 z m 9.06,0 H 43.645985 C 43.507989,24.131989 23.989995,4.8039986 0,4.7339987 V 2.4139994 C 0,1.0899997 1.0879986,0.00200004 2.4139981,0.00200004 H 17.693998 C 31.465994,4.9699993 42.513989,15.567997 47.999986,29.005995 v 16.581993 c 0,1.326003 -1.088002,2.390001 -2.413995,2.390001 z M 33.425992,0.00200004 h 12.183999 c 1.321472,-0.0055665 2.394447,1.06652116 2.389995,2.38799946 V 14.217998 C 46.179983,11.734 43.907986,8.9179979 41.683993,6.6939985 39.175992,4.2099988 36.243991,1.9639995 33.427993,0 Z"
       id="path1"
       sodipodi:nodetypes="ccccscsccssccssccccccc"
       style="fill:#660066;fill-opacity:1;stroke-width:1" /><path
       d="m 14.262206,32.550662 c -0.474582,0.316399 -1.977438,1.175168 -2.203435,1.344665 -0.44068,0.350289 -0.847474,0.327691 -1.28816,-0.0113 -0.225993,-0.180798 -1.7288523,-1.039568 -2.2034334,-1.344663 -0.5423848,-0.350286 -0.5084859,-0.790969 0.090399,-1.039571 1.8531424,-0.779674 3.7062924,-0.723179 5.5481324,0.0339 0.553688,0.237296 0.576286,0.677982 0.0565,1.016967 m 8.15837,8.226167 c -1.050866,-2.361629 -2.485925,-4.508568 -4.339066,-6.395615 -0.598881,-0.621484 -0.971778,-1.322062 -1.197765,-2.124335 -0.113004,-0.372894 -0.192104,-0.757084 -0.271199,-1.141265 -0.225992,-0.994377 -0.327687,-2.011349 -0.790973,-2.949215 -0.824881,-1.78535 -2.259939,-2.711927 -4.339083,-2.791025 -2.0452367,0.0565 -3.5706943,0.915273 -4.4633668,2.711924 -0.2372932,0.485883 -0.4067884,0.994363 -0.5197851,1.514152 -0.1920944,0.858781 -0.3615898,1.75145 -0.5649835,2.621529 -0.1694951,0.734481 -0.5084856,1.367261 -1.0847692,1.932245 -1.8192476,1.774049 -3.2769054,3.807987 -4.38427376,6.045325 -0.15819544,0.327689 -0.31639089,0.655381 -0.41808797,0.994372 -0.21469386,0.745777 0.32769056,1.265563 1.11866823,1.084767 0.4971852,-0.101699 0.9943708,-0.203395 1.4689575,-0.350292 0.4632869,-0.169492 0.6440815,-0.0565 0.7570785,0.395491 0.7344784,2.429433 2.3390321,4.135682 4.7910629,5.084851 4.6554652,1.762748 10.0906072,-0.745775 11.2657732,-5.175248 0.0791,-0.305094 0.192094,-0.418088 0.531084,-0.305094 0.519788,0.158194 1.050875,0.271194 1.581957,0.395491 0.553683,0.1017 0.960472,-0.180796 1.039569,-0.723179 0.0339,-0.293791 -0.0678,-0.553684 -0.180795,-0.824877"
       id="path1-2"
       style="fill:#660066;fill-opacity:1;stroke-width:0.999989" /></g></svg>
